<svg xmlns="http://www.w3.org/2000/svg" width="574.737" height="110.288" viewBox="0 0 574.737 110.288">
  <g id="Group_11" data-name="Group 11" transform="translate(-822.943 -31.144)">
    <g id="Group_1" data-name="Group 1" transform="translate(20.456 -499.814)">
      <rect id="Rectangle_4" data-name="Rectangle 4" width="31.194" height="31.194" transform="translate(868.659 553.016) rotate(45)" fill="#90ba4c"/>
      <path id="Rectangle_11" data-name="Rectangle 11" d="M0,0H31.194V31.194H4a4,4,0,0,1-4-4Z" transform="translate(846.602 575.073) rotate(45)" fill="#719d2c"/>
      <rect id="Rectangle_7" data-name="Rectangle 7" width="31.194" height="31.194" transform="translate(912.774 553.016) rotate(45)" fill="#90ba4c"/>
      <rect id="Rectangle_9" data-name="Rectangle 9" width="31.194" height="31.194" transform="translate(890.716 575.073) rotate(45)" fill="#719d2c"/>
      <path id="Rectangle_13" data-name="Rectangle 13" d="M0,0H31.194V27.194a4,4,0,0,1-4,4H0Z" transform="translate(912.774 597.131) rotate(45)" fill="#507d0c"/>
      <path id="Rectangle_14" data-name="Rectangle 14" d="M0,0H31.194V27.194a4,4,0,0,1-4,4H0Z" transform="translate(868.659 597.131) rotate(45)" fill="#507d0c"/>
      <rect id="Rectangle_10" data-name="Rectangle 10" width="31.194" height="31.194" transform="translate(934.831 575.073) rotate(45)" fill="#719d2c"/>
      <path id="Rectangle_5" data-name="Rectangle 5" d="M3,0H31.194V31.194H0V3A3,3,0,0,1,3,0Z" transform="translate(890.716 530.958) rotate(45)" fill="#dfe5d5"/>
    </g>
    <path id="Path_5" data-name="Path 5" d="M1.675-35.765a12.914,12.914,0,0,1,1.065-5.217,13.725,13.725,0,0,1,2.89-4.262,13.725,13.725,0,0,1,4.262-2.89A12.914,12.914,0,0,1,15.11-49.2H35.666v8.967H15.11a4.443,4.443,0,0,0-1.75.343,4.43,4.43,0,0,0-1.421.947,4.43,4.43,0,0,0-.947,1.421,4.443,4.443,0,0,0-.343,1.75,4.558,4.558,0,0,0,.343,1.765,4.387,4.387,0,0,0,.947,1.437,4.43,4.43,0,0,0,1.421.947,4.443,4.443,0,0,0,1.75.343h8.97a13.192,13.192,0,0,1,5.233,1.047,13.458,13.458,0,0,1,4.28,2.874,13.458,13.458,0,0,1,2.874,4.28,13.192,13.192,0,0,1,1.047,5.233,13.08,13.08,0,0,1-1.05,5.234A13.506,13.506,0,0,1,33.589-8.35a13.675,13.675,0,0,1-4.28,2.89,13.023,13.023,0,0,1-5.233,1.065H4.174v-8.967H24.08a4.443,4.443,0,0,0,1.75-.343,4.43,4.43,0,0,0,1.421-.947,4.43,4.43,0,0,0,.947-1.421,4.443,4.443,0,0,0,.343-1.75,4.443,4.443,0,0,0-.343-1.75,4.43,4.43,0,0,0-.947-1.421,4.43,4.43,0,0,0-1.421-.947,4.443,4.443,0,0,0-1.75-.343H15.11a12.914,12.914,0,0,1-5.217-1.065,13.725,13.725,0,0,1-4.262-2.89,13.675,13.675,0,0,1-2.89-4.28,13.023,13.023,0,0,1-1.065-5.247ZM66.754-8.3a23.015,23.015,0,0,1-2.2,1.765A16.591,16.591,0,0,1,62.1-5.1a15.154,15.154,0,0,1-2.64.968,10.773,10.773,0,0,1-2.766.355A15.422,15.422,0,0,1,50.88-4.867a14.35,14.35,0,0,1-4.764-3.109,14.351,14.351,0,0,1-3.213-4.9,17.118,17.118,0,0,1-1.172-6.483v-18.5h8.5v18.5a8.287,8.287,0,0,0,.515,3.015,6.617,6.617,0,0,0,1.39,2.234,5.815,5.815,0,0,0,2.047,1.374,6.709,6.709,0,0,0,2.515.474,5.308,5.308,0,0,0,2.486-.61,6.969,6.969,0,0,0,2.047-1.609,7.716,7.716,0,0,0,1.37-2.274,7.039,7.039,0,0,0,.5-2.6v-18.5h8.524V-4.4H69.566ZM86.718,8.35H78.125V-37.858h2.062l3.406,4.025A22.7,22.7,0,0,1,86.124-35.9a19.31,19.31,0,0,1,2.859-1.672,16.955,16.955,0,0,1,3.078-1.109,12.979,12.979,0,0,1,3.218-.406,17.44,17.44,0,0,1,6.639,1.266,16.405,16.405,0,0,1,5.436,3.578,16.722,16.722,0,0,1,3.67,5.577,18.835,18.835,0,0,1,1.344,7.232,19.5,19.5,0,0,1-1.344,7.421,16.48,16.48,0,0,1-3.67,5.593A15.929,15.929,0,0,1,101.918-4.9a18.029,18.029,0,0,1-6.639,1.218,10.127,10.127,0,0,1-2.232-.249A15.111,15.111,0,0,1,90.859-4.6q-1.077-.421-2.125-.947T86.721-6.645Zm17.089-29.774a10.232,10.232,0,0,0-.671-3.812,8.475,8.475,0,0,0-1.828-2.859,7.889,7.889,0,0,0-2.723-1.8,8.834,8.834,0,0,0-3.315-.625,8.715,8.715,0,0,0-3.3.625,7.925,7.925,0,0,0-2.7,1.8,8.476,8.476,0,0,0-1.828,2.859,10.232,10.232,0,0,0-.671,3.812,9.966,9.966,0,0,0,.671,3.717,8.651,8.651,0,0,0,1.828,2.874,8.2,8.2,0,0,0,2.7,1.843,8.351,8.351,0,0,0,3.3.656,8.465,8.465,0,0,0,3.315-.656,8.162,8.162,0,0,0,2.723-1.843,8.651,8.651,0,0,0,1.828-2.87,9.966,9.966,0,0,0,.671-3.722ZM125.676,8.35h-8.591V-37.858h2.06l3.406,4.025a22.693,22.693,0,0,1,2.531-2.062,19.312,19.312,0,0,1,2.859-1.672,16.954,16.954,0,0,1,3.078-1.109,12.979,12.979,0,0,1,3.218-.406,17.44,17.44,0,0,1,6.639,1.266,16.4,16.4,0,0,1,5.436,3.578,16.723,16.723,0,0,1,3.67,5.577,18.835,18.835,0,0,1,1.344,7.232,19.5,19.5,0,0,1-1.344,7.421,16.481,16.481,0,0,1-3.67,5.593A15.929,15.929,0,0,1,140.876-4.9a18.029,18.029,0,0,1-6.639,1.218A10.126,10.126,0,0,1,132-3.932a15.11,15.11,0,0,1-2.188-.672q-1.077-.421-2.125-.947t-2.013-1.094Zm17.089-29.774a10.232,10.232,0,0,0-.671-3.812,8.475,8.475,0,0,0-1.828-2.859,7.889,7.889,0,0,0-2.723-1.8,8.834,8.834,0,0,0-3.315-.625,8.715,8.715,0,0,0-3.3.625,7.925,7.925,0,0,0-2.7,1.8,8.475,8.475,0,0,0-1.828,2.859,10.232,10.232,0,0,0-.671,3.812,9.964,9.964,0,0,0,.671,3.717,8.651,8.651,0,0,0,1.828,2.874,8.2,8.2,0,0,0,2.7,1.843,8.351,8.351,0,0,0,3.3.656,8.465,8.465,0,0,0,3.315-.656,8.162,8.162,0,0,0,2.723-1.843,8.65,8.65,0,0,0,1.828-2.874,9.966,9.966,0,0,0,.672-3.717Zm45.615,0a18.018,18.018,0,0,1-1.344,6.985,17.467,17.467,0,0,1-3.656,5.593A17.1,17.1,0,0,1,177.96-5.13a16.468,16.468,0,0,1-6.67,1.359,16.391,16.391,0,0,1-6.639-1.359,17.285,17.285,0,0,1-5.436-3.717,17.334,17.334,0,0,1-3.67-5.593,18.018,18.018,0,0,1-1.344-6.985,18.3,18.3,0,0,1,1.344-7.061,17.293,17.293,0,0,1,3.67-5.608,17.072,17.072,0,0,1,5.436-3.7,16.555,16.555,0,0,1,6.639-1.344,17.521,17.521,0,0,1,6.67,1.266,16.117,16.117,0,0,1,5.422,3.6,17.021,17.021,0,0,1,3.656,5.593,18.92,18.92,0,0,1,1.343,7.26Zm-8.591,0a9.931,9.931,0,0,0-.671-3.734,8.867,8.867,0,0,0-1.828-2.874,7.9,7.9,0,0,0-2.7-1.843,8.524,8.524,0,0,0-3.3-.64,8.524,8.524,0,0,0-3.3.64,7.741,7.741,0,0,0-2.687,1.843,8.8,8.8,0,0,0-1.8,2.874,10.142,10.142,0,0,0-.656,3.734,9.667,9.667,0,0,0,.656,3.593,9.019,9.019,0,0,0,1.8,2.874A8.4,8.4,0,0,0,168-13.036a7.872,7.872,0,0,0,3.3.7,8.351,8.351,0,0,0,3.3-.656,8.2,8.2,0,0,0,2.7-1.843,8.651,8.651,0,0,0,1.828-2.874,9.965,9.965,0,0,0,.671-3.719ZM201.628-4.4H193.1V-37.858h2.062l2.812,3.968a14.894,14.894,0,0,1,4.687-2.89A14.939,14.939,0,0,1,208.1-37.8h7.529v8.5H208.1a6.454,6.454,0,0,0-2.531.5,6.393,6.393,0,0,0-2.062,1.374,6.393,6.393,0,0,0-1.374,2.062,6.454,6.454,0,0,0-.5,2.531Zm34.742,0a14.522,14.522,0,0,1-5.812-1.172,15.154,15.154,0,0,1-4.765-3.218,15.153,15.153,0,0,1-3.218-4.764,14.522,14.522,0,0,1-1.172-5.812V-29.3h-4.155v-8.5H221.4V-51.167h8.5V-37.8h12.935v8.5H229.9v9.937a6.34,6.34,0,0,0,.5,2.515,6.433,6.433,0,0,0,1.374,2.047,6.6,6.6,0,0,0,2.062,1.39,6.285,6.285,0,0,0,2.531.515h6.467v8.5Zm48.051-22.4a22.067,22.067,0,0,1-.8,5.951A22.11,22.11,0,0,1,281.36-15.5a23.085,23.085,0,0,1-3.5,4.531,22.19,22.19,0,0,1-4.531,3.515,22.4,22.4,0,0,1-5.358,2.265,22.067,22.067,0,0,1-5.951.8h-13.5v-44.8h13.5a22.068,22.068,0,0,1,5.951.8,22.4,22.4,0,0,1,5.358,2.265,22.19,22.19,0,0,1,4.531,3.515,23.086,23.086,0,0,1,3.5,4.531,22.11,22.11,0,0,1,2.265,5.343,22.067,22.067,0,0,1,.8,5.945Zm-8.967,0a13.08,13.08,0,0,0-1.047-5.217,13.505,13.505,0,0,0-2.874-4.262,13.675,13.675,0,0,0-4.286-2.892,13.023,13.023,0,0,0-5.233-1.065h-4.463v26.874h4.468a13.192,13.192,0,0,0,5.233-1.047,13.458,13.458,0,0,0,4.28-2.874,13.458,13.458,0,0,0,2.874-4.28,13.192,13.192,0,0,0,1.047-5.236Zm27.31,14.216a4.869,4.869,0,0,0,1,.2q.5.047,1,.047a8.4,8.4,0,0,0,2.406-.343,8.7,8.7,0,0,0,2.171-.984,8.089,8.089,0,0,0,1.813-1.563,8.211,8.211,0,0,0,1.3-2.047l6.248,6.275a16.819,16.819,0,0,1-2.734,3.031,17.249,17.249,0,0,1-3.343,2.28,16.706,16.706,0,0,1-3.78,1.421,17.132,17.132,0,0,1-4.077.484,16.9,16.9,0,0,1-6.639-1.312,16.777,16.777,0,0,1-5.436-3.656,17.152,17.152,0,0,1-3.67-5.577,18.35,18.35,0,0,1-1.344-7.1,18.953,18.953,0,0,1,1.344-7.249,16.686,16.686,0,0,1,3.67-5.593,16.609,16.609,0,0,1,5.436-3.593,17.253,17.253,0,0,1,6.639-1.281,16.81,16.81,0,0,1,4.093.5,17.187,17.187,0,0,1,3.8,1.437,17.283,17.283,0,0,1,3.359,2.3,16.964,16.964,0,0,1,2.749,3.046Zm4.374-17.59a4.913,4.913,0,0,0-1.172-.282,11.192,11.192,0,0,0-1.2-.063,8.524,8.524,0,0,0-3.3.64,7.843,7.843,0,0,0-2.687,1.828,8.617,8.617,0,0,0-1.8,2.859,10.233,10.233,0,0,0-.656,3.765q0,.474.047,1.065t.156,1.2q.109.61.265,1.172a4.362,4.362,0,0,0,.406,1ZM341.412-4.4h-19.5v-8.5h19.495a2.046,2.046,0,0,0,1.5-.625,2.046,2.046,0,0,0,.625-1.5,1.164,1.164,0,0,0-.625-1.184,3.636,3.636,0,0,0-1.5-.282h-8.873a10.293,10.293,0,0,1-4.155-.844,10.709,10.709,0,0,1-3.374-2.3,10.811,10.811,0,0,1-2.265-3.389,10.459,10.459,0,0,1-.829-4.155,10.459,10.459,0,0,1,.829-4.155A10.623,10.623,0,0,1,325-34.7a10.626,10.626,0,0,1,3.374-2.265,10.461,10.461,0,0,1,4.155-.829h17.277v8.5H332.534a2.046,2.046,0,0,0-1.5.625,2.046,2.046,0,0,0-.625,1.5,2.131,2.131,0,0,0,.625,1.546,2.021,2.021,0,0,0,1.5.64h8.873a11.537,11.537,0,0,1,4.123.734A10.426,10.426,0,0,1,348.9-22.2a9.664,9.664,0,0,1,2.28,3.155,9.569,9.569,0,0,1,.844,4.025,10.18,10.18,0,0,1-.844,4.144,11.089,11.089,0,0,1-2.28,3.374,10.5,10.5,0,0,1-3.374,2.28,10.383,10.383,0,0,1-4.123.829Zm23.744,0h-8.6v-46.77h8.595v29.493L377.87-37.8h9.81L376.586-23.859,387.676-4.394h-9.81l-6.78-12.154-5.936,7.873Z" transform="translate(1010 117.756)" fill="#fff"/>
    <g id="Group_1-2" data-name="Group 1" transform="translate(822.943 31.144)">
      <rect id="Rectangle_4-2" data-name="Rectangle 4" width="31.194" height="31.194" transform="translate(44.115 22.058) rotate(45)" fill="#90ba4c"/>
      <path id="Rectangle_11-2" data-name="Rectangle 11" d="M0,0H31.194V31.194H4a4,4,0,0,1-4-4Z" transform="translate(22.058 44.115) rotate(45)" fill="#719d2c"/>
      <rect id="Rectangle_7-2" data-name="Rectangle 7" width="31.194" height="31.194" transform="translate(88.23 22.058) rotate(45)" fill="#90ba4c"/>
      <rect id="Rectangle_9-2" data-name="Rectangle 9" width="31.194" height="31.194" transform="translate(66.172 44.115) rotate(45)" fill="#719d2c"/>
      <path id="Rectangle_13-2" data-name="Rectangle 13" d="M0,0H31.194V27.194a4,4,0,0,1-4,4H0Z" transform="translate(88.23 66.173) rotate(45)" fill="#507d0c"/>
      <path id="Rectangle_14-2" data-name="Rectangle 14" d="M0,0H31.194V27.194a4,4,0,0,1-4,4H0Z" transform="translate(44.115 66.173) rotate(45)" fill="#507d0c"/>
      <path id="Rectangle_15" data-name="Rectangle 15" d="M0,0H31.194V27.194a4,4,0,0,1-4,4H0Z" transform="translate(132.345 66.173) rotate(45)" fill="#507d0c"/>
      <rect id="Rectangle_10-2" data-name="Rectangle 10" width="31.194" height="31.194" transform="translate(110.287 44.115) rotate(45)" fill="#719d2c"/>
      <path id="Rectangle_12" data-name="Rectangle 12" d="M0,0H27.194a4,4,0,0,1,4,4V31.194H0Z" transform="translate(154.402 44.115) rotate(45)" fill="#719d2c"/>
      <rect id="Rectangle_8" data-name="Rectangle 8" width="31.194" height="31.194" transform="translate(132.345 22.058) rotate(45)" fill="#90ba4c"/>
      <path id="Rectangle_5-2" data-name="Rectangle 5" d="M3,0H31.194V31.194H0V3A3,3,0,0,1,3,0Z" transform="translate(66.172) rotate(45)" fill="#bcd88e"/>
      <path id="Rectangle_6" data-name="Rectangle 6" d="M3,0H31.194V31.194H0V3A3,3,0,0,1,3,0Z" transform="translate(110.287) rotate(45)" fill="#bcd88e"/>
    </g>
  </g>
</svg>
